<svg id="visual" viewBox="0 0 900 600" width="900" height="600" xmlns="http://www.w3.org/2000/svg" xmlns:xlink="http://www.w3.org/1999/xlink" version="1.1"><path d="M0 79L25 84C50 89 100 99 150 100C200 101 250 93 300 99C350 105 400 125 450 128C500 131 550 117 600 108C650 99 700 95 750 98C800 101 850 111 875 116L900 121L900 0L875 0C850 0 800 0 750 0C700 0 650 0 600 0C550 0 500 0 450 0C400 0 350 0 300 0C250 0 200 0 150 0C100 0 50 0 25 0L0 0Z" fill="#272b30"></path><path d="M0 97L25 107C50 117 100 137 150 139C200 141 250 125 300 127C350 129 400 149 450 156C500 163 550 157 600 154C650 151 700 151 750 154C800 157 850 163 875 166L900 169L900 119L875 114C850 109 800 99 750 96C700 93 650 97 600 106C550 115 500 129 450 126C400 123 350 103 300 97C250 91 200 99 150 98C100 97 50 87 25 82L0 77Z" fill="#2f343a"></path><path d="M0 151L25 158C50 165 100 179 150 181C200 183 250 173 300 176C350 179 400 195 450 206C500 217 550 223 600 223C650 223 700 217 750 212C800 207 850 203 875 201L900 199L900 167L875 164C850 161 800 155 750 152C700 149 650 149 600 152C550 155 500 161 450 154C400 147 350 127 300 125C250 123 200 139 150 137C100 135 50 115 25 105L0 95Z" fill="#3c4349"></path><path d="M0 187L25 194C50 201 100 215 150 214C200 213 250 197 300 200C350 203 400 225 450 241C500 257 550 267 600 267C650 267 700 257 750 247C800 237 850 227 875 222L900 217L900 197L875 199C850 201 800 205 750 210C700 215 650 221 600 221C550 221 500 215 450 204C400 193 350 177 300 174C250 171 200 181 150 179C100 177 50 163 25 156L0 149Z" fill="#525960"></path><path d="M0 361L25 352C50 343 100 325 150 311C200 297 250 287 300 300C350 313 400 349 450 368C500 387 550 389 600 387C650 385 700 379 750 379C800 379 850 385 875 388L900 391L900 215L875 220C850 225 800 235 750 245C700 255 650 265 600 265C550 265 500 255 450 239C400 223 350 201 300 198C250 195 200 211 150 212C100 213 50 199 25 192L0 185Z" fill="#575e65"></path><path d="M0 385L25 383C50 381 100 377 150 369C200 361 250 349 300 357C350 365 400 393 450 407C500 421 550 421 600 423C650 425 700 429 750 432C800 435 850 437 875 438L900 439L900 389L875 386C850 383 800 377 750 377C700 377 650 383 600 385C550 387 500 385 450 366C400 347 350 311 300 298C250 285 200 295 150 309C100 323 50 341 25 350L0 359Z" fill="#525960"></path><path d="M0 451L25 446C50 441 100 431 150 421C200 411 250 401 300 407C350 413 400 435 450 444C500 453 550 449 600 456C650 463 700 481 750 486C800 491 850 483 875 479L900 475L900 437L875 436C850 435 800 433 750 430C700 427 650 423 600 421C550 419 500 419 450 405C400 391 350 363 300 355C250 347 200 359 150 367C100 375 50 379 25 381L0 383Z" fill="#3c4349"></path><path d="M0 559L25 560C50 561 100 563 150 562C200 561 250 557 300 560C350 563 400 573 450 578C500 583 550 583 600 582C650 581 700 579 750 574C800 569 850 561 875 557L900 553L900 473L875 477C850 481 800 489 750 484C700 479 650 461 600 454C550 447 500 451 450 442C400 433 350 411 300 405C250 399 200 409 150 419C100 429 50 439 25 444L0 449Z" fill="#2f343a"></path><path d="M0 601L25 601C50 601 100 601 150 601C200 601 250 601 300 601C350 601 400 601 450 601C500 601 550 601 600 601C650 601 700 601 750 601C800 601 850 601 875 601L900 601L900 551L875 555C850 559 800 567 750 572C700 577 650 579 600 580C550 581 500 581 450 576C400 571 350 561 300 558C250 555 200 559 150 560C100 561 50 559 25 558L0 557Z" fill="#272b30"></path></svg>