<svg id="visual" viewBox="0 0 900 600" width="900" height="600" xmlns="http://www.w3.org/2000/svg" xmlns:xlink="http://www.w3.org/1999/xlink" version="1.1"><rect x="0" y="0" width="900" height="600" fill="#343a40"></rect><path d="M0 360L21.5 369.7C43 379.3 86 398.7 128.8 409.5C171.7 420.3 214.3 422.7 257.2 417.8C300 413 343 401 385.8 405.3C428.7 409.7 471.3 430.3 514.2 433.7C557 437 600 423 642.8 410.7C685.7 398.3 728.3 387.7 771.2 378.7C814 369.7 857 362.3 878.5 358.7L900 355L900 601L878.5 601C857 601 814 601 771.2 601C728.3 601 685.7 601 642.8 601C600 601 557 601 514.2 601C471.3 601 428.7 601 385.8 601C343 601 300 601 257.2 601C214.3 601 171.7 601 128.8 601C86 601 43 601 21.5 601L0 601Z" fill="#fa7268"></path><path d="M0 443L21.5 448C43 453 86 463 128.8 457.3C171.7 451.7 214.3 430.3 257.2 431.2C300 432 343 455 385.8 462.2C428.7 469.3 471.3 460.7 514.2 457.2C557 453.7 600 455.3 642.8 460.7C685.7 466 728.3 475 771.2 475.2C814 475.3 857 466.7 878.5 462.3L900 458L900 601L878.5 601C857 601 814 601 771.2 601C728.3 601 685.7 601 642.8 601C600 601 557 601 514.2 601C471.3 601 428.7 601 385.8 601C343 601 300 601 257.2 601C214.3 601 171.7 601 128.8 601C86 601 43 601 21.5 601L0 601Z" fill="#eb5967"></path><path d="M0 482L21.5 484.7C43 487.3 86 492.7 128.8 496.3C171.7 500 214.3 502 257.2 501.5C300 501 343 498 385.8 498.3C428.7 498.7 471.3 502.3 514.2 506.5C557 510.7 600 515.3 642.8 507.5C685.7 499.7 728.3 479.3 771.2 477.8C814 476.3 857 493.7 878.5 502.3L900 511L900 601L878.5 601C857 601 814 601 771.2 601C728.3 601 685.7 601 642.8 601C600 601 557 601 514.2 601C471.3 601 428.7 601 385.8 601C343 601 300 601 257.2 601C214.3 601 171.7 601 128.8 601C86 601 43 601 21.5 601L0 601Z" fill="#da3f67"></path><path d="M0 553L21.5 552.5C43 552 86 551 128.8 548.3C171.7 545.7 214.3 541.3 257.2 537.3C300 533.3 343 529.7 385.8 527C428.7 524.3 471.3 522.7 514.2 522.3C557 522 600 523 642.8 527.7C685.7 532.3 728.3 540.7 771.2 541C814 541.3 857 533.7 878.5 529.8L900 526L900 601L878.5 601C857 601 814 601 771.2 601C728.3 601 685.7 601 642.8 601C600 601 557 601 514.2 601C471.3 601 428.7 601 385.8 601C343 601 300 601 257.2 601C214.3 601 171.7 601 128.8 601C86 601 43 601 21.5 601L0 601Z" fill="#c62368"></path></svg>